<?xml version="1.0" encoding="UTF-8" standalone="no"?>
<!DOCTYPE svg PUBLIC "-//W3C//DTD SVG 1.1//EN" "http://www.w3.org/Graphics/SVG/1.1/DTD/svg11.dtd">
<svg width="100%" height="100%" viewBox="0 0 3508 2481" version="1.1" xmlns="http://www.w3.org/2000/svg" xmlns:xlink="http://www.w3.org/1999/xlink" xml:space="preserve" xmlns:serif="http://www.serif.com/" style="fill-rule:evenodd;clip-rule:evenodd;stroke-linejoin:round;stroke-miterlimit:2;">
    <g transform="matrix(2.77346,0,0,2.77346,-2905.29,-1696.14)">
        <path d="M1902.66,1019.26C1891.25,1012.98 1871.92,1001.39 1867.97,987.245C1866.04,980.328 1868.34,975.204 1869.29,973.284C1869.72,972.408 1870.47,971.935 1870.61,971.853C1870.62,971.844 1872.61,970.747 1875.29,969.983C1882.87,967.822 1890.38,969.617 1899.15,974.682C1903.28,977.065 1907.68,980.099 1911.86,982.99C1912.44,983.398 1914.63,985.01 1918.15,987.541C1918.85,988.041 1922.99,991.149 1923.39,991.452C1923.79,991.746 1924.77,992.476 1928.2,995.296C1928.49,995.532 1932.23,998.844 1933.92,1000.51C1941.57,1008.05 1946.71,1014.06 1950.91,1019.32C1951.17,1019.65 1951.85,1020.5 1954.16,1023.47C1955.94,1025.75 1955.9,1025.78 1957.68,1028.06C1957.9,1028.35 1958.86,1029.57 1960.42,1031.65C1960.57,1031.84 1960.58,1031.84 1960.67,1032.06C1960.97,1032.79 1960.65,1033.87 1959.55,1034.11C1959.55,1034.11 1958.39,1034.3 1956.87,1034.47C1947.05,1035.57 1936.01,1034.87 1922.27,1029.44C1912.95,1025.76 1905.56,1021.07 1902.66,1019.26ZM1903.58,1017.75C1920.98,1028.59 1933.35,1030.91 1938.36,1031.68C1946.39,1032.9 1952.48,1032.31 1956.22,1031.69C1954.57,1030.06 1953.74,1029.3 1951.74,1027.54C1951.7,1027.51 1948.64,1024.72 1942.83,1020.3C1934.89,1014.25 1927.96,1009.83 1926.63,1008.98C1925.8,1008.45 1924.41,1007.47 1921.09,1005.36C1920.57,1005.03 1920.17,1004.71 1916.96,1002.57C1915.81,1001.81 1915.83,1001.78 1914.73,1000.96C1911.22,998.322 1909.31,996.701 1908.62,996.129C1904.16,992.446 1904.17,992.429 1902.82,991.261C1898.12,987.212 1892.02,982.054 1887,979.544C1881.81,976.943 1878.11,977.273 1875.06,978.125C1873.68,980.734 1873,984.05 1874.66,988.667C1879.15,1001.09 1897.47,1013.6 1903.58,1017.75Z"/>
    </g>
    <g transform="matrix(2.77346,0,0,2.77346,-2905.29,-1696.14)">
        <path d="M1731.51,965.635C1731.47,965.539 1731.36,965.381 1729.61,961.319C1729.08,960.095 1726.37,953.812 1723.23,945.925C1722.65,944.457 1719.11,935.694 1715.78,925.268C1715.23,923.526 1712.78,915.782 1711.62,909.219C1711.57,908.924 1710.92,905.286 1710.79,902.236C1710.75,901.242 1710.48,895.826 1712.89,892.862C1714.36,891.054 1715.87,890.79 1716.37,890.57C1719.49,889.187 1723.3,890.925 1724.1,891.18C1730.01,893.058 1736.4,897.901 1737.4,898.643C1739.28,900.033 1740.88,901.318 1741.8,902.071C1742.02,902.255 1742.34,902.513 1744.44,904.561C1745.11,905.204 1745.13,905.183 1745.71,905.895C1747.55,908.125 1747.67,908.326 1747.82,908.555C1750.14,912.213 1750.74,913.359 1751.35,914.461C1752.25,916.093 1752.88,917.211 1754.79,921.184C1755.73,923.14 1756.71,925.254 1757.65,927.378C1758.61,929.522 1760.12,933.472 1760.34,934.035L1760.25,934.079C1770.57,951.053 1779.29,963.835 1785.55,975.348C1786.34,976.811 1789.59,982.36 1791.37,987.624C1791.94,989.292 1794.58,995.987 1790.61,999.543C1789.79,1000.28 1786.95,1002.96 1782.04,1002.95C1779.04,1002.94 1775.39,1002.27 1769.17,998.764C1769.07,998.705 1764.81,996.462 1757.66,990.675C1756.98,990.125 1754.13,987.819 1749.41,983.511C1747.34,981.624 1743.23,977.855 1734.86,969.179C1734.71,969.026 1733.95,968.233 1733.02,967.255C1731.9,966.082 1731.91,966.072 1731.51,965.635ZM1738.25,961.289C1739.72,963.4 1744.24,969.884 1750.37,977.419C1752.31,979.805 1755.8,984.073 1760.6,988.851C1761.32,989.568 1766.13,994.446 1771.66,997.963C1773.44,999.098 1775.23,999.892 1775.56,1000.03C1780.42,1002.19 1783.3,1001.76 1784.72,1001.45C1786.17,1001.14 1787.83,1000.43 1789.57,998.788C1790.87,997.564 1791.01,995.798 1791.03,995.512C1791.21,993.19 1790.17,990.528 1789.33,988.699C1788.73,987.413 1787.52,985.476 1787.35,985.203C1785.59,982.369 1783.52,979.624 1782.21,977.924C1782.17,977.868 1780.63,975.931 1777.98,972.838C1770.41,964.041 1760.57,953.801 1750.59,942.491C1749.38,941.122 1749.23,940.9 1749.13,940.75C1749.03,940.601 1749.09,940.564 1748.02,938.799C1746.39,936.138 1746.35,936.163 1744.71,933.509C1741.77,928.741 1740.1,926.388 1738.66,924.186C1737.12,921.816 1737.08,921.84 1736.09,920.313C1734.25,917.475 1734.21,917.504 1734.06,917.251C1733.93,917.037 1733.97,917.019 1732.6,914.521C1732.31,914 1732.27,913.731 1731.16,911.244C1730.89,910.626 1730.88,910.632 1730.64,909.999C1726.36,898.695 1722.86,894.735 1722.73,894.571C1722.17,893.875 1722.17,893.871 1721.49,893.297C1720.66,892.605 1718.72,891.109 1716.53,891.222C1716.23,891.238 1715.41,891.51 1714.74,891.912C1711.83,893.645 1711.53,897.487 1711.52,899.534C1711.48,903.756 1712.67,908.087 1712.9,908.938C1714.31,914.304 1716.32,919.443 1718.58,924.621C1719.95,927.752 1723.22,934.969 1730.14,947.436C1732.87,952.35 1737.16,959.481 1738.25,961.289Z"/>
    </g>
    <g transform="matrix(2.77346,0,0,2.77346,-2905.29,-1696.14)">
        <path d="M1531.41,779.422C1529.01,775.647 1527.9,772.387 1527.18,769.522C1526.17,765.479 1526,762.258 1525.96,761.619C1525.73,757.25 1526.07,754.182 1526.1,753.855C1526.36,750.981 1526.61,749.529 1526.68,749.156C1527.09,746.842 1527.53,744.881 1527.75,743.905C1527.82,743.624 1528.35,741.588 1528.72,740.413C1529.22,738.85 1529.57,737.843 1529.59,737.815C1529.61,737.769 1530.9,735.574 1531.9,734.183C1533.12,732.486 1534.26,731.03 1536.22,729.027C1538.5,726.699 1540.26,725.3 1542.15,723.992C1544.47,722.385 1549.8,718.931 1558.2,717.366C1558.46,717.319 1558.46,717.319 1558.72,717.27C1559.12,717.193 1559.12,717.161 1559.53,717.184C1559.72,717.194 1560.86,717.259 1561.55,718.402C1561.81,718.837 1561.87,719.273 1561.88,719.353C1562.46,723.751 1562.34,727.693 1562.31,728.419C1562.18,732.705 1561.77,735.343 1561.23,738.197C1560.71,741.001 1560.07,743.048 1559.89,743.648C1559.83,743.859 1559.84,743.863 1559.16,745.32C1559,745.648 1558.52,746.684 1557.21,749.406C1557.15,749.53 1554.83,754.361 1552.28,758.743C1546.39,768.853 1539.76,776.206 1532.93,779.081C1532.24,779.374 1531.69,779.564 1531.63,779.564C1531.59,779.564 1531.55,779.554 1531.52,779.535C1531.46,779.506 1531.45,779.471 1531.41,779.422ZM1531.79,779.021C1535.3,777.737 1542.85,774.139 1551.67,758.885C1554.26,754.416 1555.92,750.806 1557.25,747.796C1557.55,747.116 1558.91,743.738 1558.96,743.584C1558.98,743.514 1559.15,742.402 1559.17,742.299C1559.52,739.963 1559.63,738.099 1559.67,737.068C1559.67,737.04 1559.72,735.462 1559.59,733.372C1559.4,730.105 1558.88,726.886 1557.81,723.102C1555.52,724.157 1551.99,726.081 1548.32,729.42C1547.99,729.717 1546.54,731.041 1544.51,733.425C1544.05,733.959 1543,735.153 1540.88,738.35C1540.31,739.212 1539.87,739.937 1539.86,739.952C1539.2,741.001 1539.17,741.044 1538.6,742.028C1538.08,743.427 1538.07,743.487 1537.5,744.993C1537.07,746.137 1537.08,746.14 1536.63,747.28C1535.78,749.462 1535.74,749.681 1534.65,752.737C1534.49,753.194 1533.78,755.21 1532.86,758.524C1532.74,758.963 1532.17,761.007 1531.61,764.081C1531.09,766.931 1530.91,769.457 1530.95,771.684C1531.02,775.547 1531.54,777.902 1531.79,779.021Z"/>
    </g>
    <g transform="matrix(2.77346,0,0,2.77346,-2905.29,-1696.14)">
        <path d="M1685.85,1000.85C1680.54,1001.78 1676.28,1005.5 1670.9,1010.63C1670.23,1011.27 1667.16,1014.22 1666.86,1014.42C1666.26,1014.83 1665.62,1014.69 1665.51,1014.66C1665.44,1014.65 1665.15,1014.64 1663.72,1013.51C1653.24,1005.25 1647.94,982.353 1646.3,975.305C1641.83,956.134 1639.7,934.784 1638.56,920.624C1636.76,898.301 1638.59,898.274 1638.78,875.879C1638.8,873.089 1639.02,848.009 1639.32,841.008C1639.51,836.478 1639.85,831.955 1640.19,827.433C1640.73,820.365 1641.69,809.292 1641.83,807.715C1643.06,793.682 1643.14,793.691 1644.36,779.657C1644.39,779.555 1644.38,779.535 1644.48,779.495C1644.56,779.46 1644.69,779.519 1645.19,779.723C1655.35,783.901 1663.7,798.899 1672.28,826.869C1672.76,828.442 1672.78,828.541 1672.8,828.691C1672.86,829.018 1672.82,829.023 1673.24,832.821C1677.01,866.88 1680.27,883.334 1681.78,891.599C1685.64,912.815 1689.42,925.432 1690.73,930.185C1692.88,937.945 1694.58,943.055 1696.44,948.608C1697.55,951.926 1698.44,954.37 1698.49,954.519C1699.49,957.384 1699.89,958.475 1700.65,960.521C1707.57,970.474 1711.84,975.798 1716.59,982.046C1723.9,991.66 1730.6,1000.05 1735.59,1006.75C1750.61,1026.91 1761.26,1043.68 1766.03,1062.2C1766.29,1063.18 1766.32,1063.45 1766.33,1063.56C1766.38,1063.94 1766.64,1066.14 1764.98,1068.14C1763.62,1069.79 1761.86,1070.14 1761.55,1070.2C1744.22,1073.66 1730.47,1063.23 1724.95,1058.58C1713.53,1048.94 1704.91,1035.81 1699.54,1026.93C1692.77,1015.75 1687.98,1005.4 1685.85,1000.85ZM1644.74,779.984C1645.09,789.25 1645.53,798.513 1645.88,807.779C1646.13,814.35 1646.38,820.922 1646.55,827.495C1646.67,832.012 1646.8,836.53 1646.77,841.049C1646.72,848.028 1645.7,873.06 1645.59,875.843C1644.68,898.376 1642.79,898.341 1643.86,920.868C1645.7,959.539 1650.85,979.16 1651.16,980.422C1654.62,994.624 1658.17,1001.12 1660.03,1004.15C1662.26,1007.79 1664.3,1009.73 1665.72,1010.82C1672.4,1003.94 1678.03,997.309 1686.66,996.202C1686.66,996.201 1687.27,996.1 1687.76,996.225C1687.88,996.256 1688.54,996.427 1689.02,997.079C1689.46,997.685 1689.26,997.802 1693.54,1005.3C1702.67,1021.31 1709.55,1029.82 1711.68,1032.47C1721.39,1044.48 1730.59,1052.13 1738.93,1056.07C1744.17,1058.55 1748.54,1059.31 1751.98,1059.34C1749.27,1053.14 1744.79,1044.97 1736.26,1033.82C1730.18,1025.87 1724.02,1018.91 1718.77,1012.86C1713.73,1007.03 1703.48,995.398 1700.09,991.318C1699.37,990.447 1691.24,980.717 1684.25,971.239C1683.33,969.995 1683.36,969.969 1682.73,968.561C1682.57,968.223 1681.42,965.043 1681.31,964.737C1680.8,963.326 1679.47,959.736 1677.31,952.61C1677.3,952.59 1676.19,948.822 1674.88,943.715C1673.06,936.634 1672.25,932.634 1672.05,931.664C1669.05,916.791 1667.31,903.047 1666.2,892.156C1666.19,892.106 1665.63,886.157 1665.08,877.651C1664.14,862.894 1663.7,847.611 1663.53,832.146C1663.53,831.723 1663.51,831.3 1663.52,830.877C1663.52,830.574 1663.56,830.271 1663.56,829.968C1663.56,829.968 1663.26,827.781 1662.88,825.263C1660.67,810.692 1657.99,800.078 1654.7,792.661C1650.98,784.296 1647.09,781.405 1644.74,779.984Z"/>
    </g>
    <g transform="matrix(2.77346,0,0,2.77346,-2905.29,-1696.14)">
        <path d="M1203.08,1149.08C1202.96,1149.05 1202.77,1148.99 1202.48,1148.88C1198.68,1147.52 1183.81,1143.67 1179.89,1134.87C1176.76,1127.84 1179.95,1118.47 1183.53,1115.38C1183.6,1115.32 1184.04,1114.94 1184.56,1114.65C1233.64,1087.3 1346.79,1022.02 1397.86,982.192C1398.54,981.664 1415.37,968.804 1419.53,961.792C1419.94,961.093 1419.98,960.873 1420.36,959.755C1436.21,913.434 1457.14,815.922 1466.93,789.754C1469.89,781.83 1471.81,774.349 1474.5,761.786C1478.88,741.414 1482.7,721.508 1497.04,703.64C1506.88,691.382 1518.15,683.567 1523.28,680.16C1527.86,677.123 1538.98,670.002 1558.55,661.824C1566.86,658.35 1573.24,656.512 1577.19,655.501C1577.31,655.47 1580.24,654.742 1583.96,654.094C1598.44,651.576 1618.52,651.212 1638.57,663.015C1645.27,666.957 1650.75,671.922 1651.72,672.802C1657.13,677.704 1660.86,682.291 1662.18,683.91C1662.72,684.572 1665.26,687.765 1668.88,694.212C1675,705.149 1681.88,721.322 1687.41,737.377C1692.17,751.203 1694.28,759.84 1694.55,760.889C1694.65,761.288 1694.79,761.679 1694.87,762.084C1695.13,763.57 1695.69,770.7 1697.08,775.935C1697.98,779.373 1699.9,785.25 1707.31,794.259C1707.81,794.87 1708.07,795.27 1708.13,795.362C1708.67,796.202 1708.64,796.217 1709.06,797.129C1718.48,817.768 1727.38,842.563 1732.34,849.45C1732.77,850.055 1732.8,850.031 1732.84,850.084C1733.63,851.2 1735.52,855.203 1741.86,860.517C1747.84,865.526 1754.14,868.788 1756.98,875.005L1757.03,875.12C1758.44,877.626 1769.66,897.216 1785.74,912.506C1795.25,921.55 1801.64,924.423 1804.25,924.506C1804.36,924.509 1804.36,924.504 1804.43,924.516L1804.44,924.536C1804.74,924.452 1805.03,924.307 1805.34,924.226C1805.57,924.164 1806.81,923.834 1808.33,924.132C1819.08,926.251 1842.01,918.31 1858.66,915.87C1866.49,914.723 1873.55,914.646 1878.74,917.289C1878.92,917.38 1879.11,917.454 1879.28,917.562C1879.28,917.565 1884.01,920.948 1890.3,926.121C1928.43,957.474 1953.18,995.837 1978.57,1013.62C1978.95,1013.88 1978.95,1013.89 1979.32,1014.17C1988.84,1021.58 2013.77,1020.15 2023.83,1027.99C2023.84,1028 2038.75,1040.24 2058.54,1057.02C2118.87,1108.15 2173.47,1157.93 2183.73,1171.31C2183.82,1171.43 2184.44,1172.23 2184.82,1172.83C2184.94,1173.02 2185.08,1173.2 2185.18,1173.4C2185.26,1173.57 2185.53,1174.4 2185.56,1174.48C2187.35,1179.93 2184.87,1184.35 2179.79,1185.9C2173.34,1187.87 2162.11,1185.32 2153.89,1186.25C2149.74,1186.72 2148.79,1187.87 2148.59,1188.23L2148.62,1188.23C2148.9,1189.77 2150.16,1192.39 2155.12,1198.01C2162.7,1206.6 2173.35,1216.22 2180.16,1227.17C2189.88,1242.8 2191.78,1259.4 2182.57,1267.6C2182.07,1268.05 2178.56,1271.09 2171.86,1273.37C2152.5,1279.95 2123.8,1274.57 2097.19,1272.47C2092.5,1272.1 2070.91,1269.44 2055.18,1270.86C2048.7,1271.44 2045.17,1272.53 2043.57,1273.05C2043.34,1273.39 2042.92,1274.16 2042.38,1275.85C2040.41,1281.93 2039.38,1291.73 2031.75,1296.19C2028.69,1297.97 2025.93,1298.13 2023.63,1298.25C2011.59,1298.88 2004.96,1295.14 1995.41,1293.61C1982.16,1291.47 1968.05,1290.57 1959.43,1291.44C1960.73,1292.2 1962.35,1293.08 1964.34,1294.07C1978.81,1301.26 2000.91,1308.6 2008.9,1311.61C2024.46,1317.47 2042.26,1317.56 2059.74,1324.95C2060.19,1325.14 2060.2,1325.12 2060.62,1325.37C2060.72,1325.43 2061.26,1325.76 2061.77,1326.32C2061.84,1326.39 2062.06,1326.65 2062.47,1327.28C2066.97,1334.37 2069.05,1339.7 2073.59,1341.35C2074.17,1341.56 2074.95,1341.69 2077.91,1340.88C2081.22,1339.98 2085.18,1338.54 2089.36,1339.06C2089.89,1339.13 2090.18,1339.22 2090.25,1339.24C2090.74,1339.38 2090.74,1339.4 2091.19,1339.64C2110.8,1349.74 2120.43,1369.59 2125.44,1374.32C2125.99,1374.84 2126.5,1375.07 2126.55,1375.11C2126.95,1375.4 2126.93,1375.42 2127.27,1375.78C2129.84,1378.47 2152.45,1402.45 2153.96,1417.11C2154.2,1419.36 2153.94,1421.46 2153.06,1423.28C2153.03,1423.35 2152.8,1423.82 2152.48,1424.14C2152.39,1424.24 2151.84,1424.79 2150.94,1424.92C2150.65,1424.96 2150.54,1424.95 2150.5,1424.95C2150.2,1424.92 2150.11,1424.88 2149.95,1424.84L2149.94,1424.88C2149.89,1424.88 2146.96,1424.85 2130.14,1431.74C2108.34,1440.65 2081.65,1453.6 2076,1458.25C2075.03,1460.37 2073.15,1461.01 2072.83,1461.12C2070.59,1461.88 2068.82,1460.92 2068.51,1460.76C2068.25,1460.62 2068,1460.45 2067.76,1460.27C2067.43,1460.01 2066.82,1459.36 2066.74,1459.28C2059.26,1451.33 2035.56,1425.42 2027.26,1420.2C2017.27,1413.91 1997.67,1411.68 1985.72,1408.18C1978.29,1406.02 1975.29,1398.52 1974.21,1395.61C1972.16,1390.09 1971.09,1383.54 1969.78,1378.04C1969.55,1377.07 1968.73,1373.55 1967.66,1371.27C1966.32,1372.67 1964.9,1374.97 1964.46,1377.88C1963.71,1382.89 1965.07,1388.26 1961.48,1392.04C1959.66,1393.96 1956.69,1395.13 1953.38,1394.17C1939.85,1390.27 1927.1,1389.06 1917.45,1386.82C1909.41,1384.94 1907.08,1383.02 1904.59,1380.2C1896.81,1371.36 1894.8,1357.83 1888.91,1352.1C1887.24,1350.47 1885.86,1350.01 1883.56,1349.29C1874.68,1346.48 1864.54,1345.21 1859.8,1342.73C1857.2,1341.37 1855.94,1339.7 1854.82,1337.53C1850.09,1328.34 1855.39,1320.03 1856.95,1317.65C1857.65,1316.59 1858.39,1315.6 1859.1,1314.72C1853.2,1316.24 1847.57,1317.91 1844.71,1318.98C1843.19,1323.38 1843.52,1332.6 1840.75,1339.46C1838.45,1345.13 1834.98,1347.22 1832.69,1348.55C1826.26,1352.29 1820.51,1352.83 1817.14,1353.54C1822.14,1359.69 1831.17,1368.68 1835.24,1376.45C1836.2,1378.3 1839.85,1385.32 1836.29,1392.28C1835.3,1394.22 1834.16,1395.35 1832.93,1396.68C1822.77,1407.77 1815.68,1414.27 1806.42,1414.76C1804.16,1414.88 1801.13,1414.74 1795.55,1412.8C1787.44,1409.98 1779.87,1405.13 1772.93,1400.16C1764.97,1394.45 1756.81,1387.78 1751.6,1385.49C1748.18,1389.09 1743.03,1397.06 1733.25,1398.44C1731.18,1398.73 1728.64,1398.82 1724.2,1397.81C1717,1396.18 1712.43,1392.98 1709.3,1390.14C1709.87,1393.16 1710.36,1396.23 1710.27,1398.9C1710.27,1398.97 1710.14,1402.44 1709.45,1405.95C1708.91,1408.64 1707.07,1417.3 1698.94,1421.34C1695.57,1423.02 1692.55,1423.19 1690.42,1423.26C1688.94,1423.3 1673.3,1423.8 1667.83,1406.33C1664.48,1395.65 1665.97,1381.61 1663.01,1368.48C1662.94,1368.14 1662.82,1368.09 1662.75,1368.02L1662.75,1368.03C1660.53,1365.93 1654.02,1363.91 1647.27,1360.28C1631.89,1352.02 1617.1,1337.98 1609.1,1328.2C1604.02,1321.99 1601.19,1315.77 1599.53,1310.45C1596.52,1300.83 1596.75,1292.17 1596.22,1288.72C1594.78,1285.96 1587.92,1275.06 1555.33,1260.36C1528.11,1248.09 1500.22,1240.74 1499.79,1240.54L1499.49,1240.4C1496.52,1240.98 1491.36,1243 1490.68,1243.27C1484.94,1245.52 1475.89,1249.61 1475,1249.93C1474.41,1250.15 1473.83,1250.38 1473.22,1250.55C1473.19,1250.56 1471.41,1250.91 1471.25,1250.93C1462.9,1251.88 1453.67,1247.01 1435.21,1235.76C1428.46,1231.65 1423.67,1228.7 1420.4,1227.11C1420.32,1227.07 1420.32,1227.07 1420.24,1227.03L1420.25,1227C1418.46,1226.49 1410.74,1226.01 1409.04,1225.87C1399.3,1225.09 1380.6,1223.82 1363.43,1219.78C1348.37,1216.24 1329.91,1206.09 1318.15,1198.02C1309.82,1194.24 1302.14,1193.8 1293.55,1192.49C1286.37,1191.4 1280.25,1189.83 1275.06,1185.63C1260.08,1173.49 1258.58,1168.41 1252.57,1163.85C1250.3,1162.13 1246.9,1159.98 1239.81,1156.66C1239.63,1156.58 1239.44,1156.51 1239.28,1156.41C1239.23,1156.38 1239.23,1156.29 1239.18,1156.28C1221.24,1152.65 1221.22,1152.76 1203.28,1149.13L1203.08,1149.08ZM1642.15,700.688C1649.42,709.793 1657.75,728.904 1660.18,734.613C1668.67,754.503 1672.2,766.822 1672.26,767.006L1672.28,766.998L1672.6,769.034C1673.3,773.248 1674.09,777.537 1675.45,781.955C1678.89,793.129 1684.92,800.978 1690.29,807.169C1694.62,815.751 1697.35,821.626 1702.55,832.805C1709.62,847.963 1713.52,855.879 1717.81,861.177C1718.72,862.518 1720.71,865.341 1723.87,868.566C1728.05,872.834 1732.32,875.833 1735.73,878.165C1739.34,880.639 1740.08,881.124 1741.45,882.421L1741.48,882.401L1742.2,883.739C1742.21,883.77 1742.22,883.769 1742.44,884.122C1754.48,903.056 1768.4,917.717 1779.34,926.419C1794.97,938.847 1803.55,938.644 1807.8,937.452C1810.92,937.736 1815.54,937.677 1823.26,936.097C1833.7,933.959 1845.54,929.94 1855.77,927.469C1865.55,925.106 1871.22,924.847 1874.42,926.167L1875.48,926.896C1911.32,951.053 1936.67,982.811 1960.43,1003.69C1970.7,1012.71 1976.47,1015.94 1977.19,1016.48C1987.47,1024.15 2011.6,1021.73 2022.31,1028.31C2023.82,1029.24 2023.73,1029.36 2025.04,1030.55C2027.22,1032.52 2034.71,1039.27 2044.42,1048.17C2108.87,1107.19 2162.47,1160.67 2174.26,1175.84C2166.34,1175.74 2153.05,1172.42 2144.19,1176.72C2139.18,1179.14 2134.64,1184.61 2137.01,1192.73C2140.14,1203.45 2154.71,1215.77 2164.32,1229.27C2173.32,1241.91 2174.05,1252.28 2172.52,1255.23C2172.28,1255.69 2172.18,1255.68 2171.99,1255.79C2161.1,1262.73 2137.12,1259.23 2115.51,1256.3C2114.08,1256.11 2101.25,1254.37 2097.59,1254.07C2071.71,1251.97 2052.91,1252.02 2039.47,1256.35C2037.19,1257.08 2033.73,1258.14 2030.6,1261.98C2025.45,1268.3 2025.18,1277.7 2023.14,1281.86C2021.36,1282.05 2018.73,1282.21 2015.34,1281.75C2011.17,1281.18 2007.04,1279.88 2001.68,1278.9C1996.14,1277.88 1986.4,1276.96 1978.73,1276.64C1956.71,1275.7 1949.64,1278.93 1947.54,1279.95C1946.82,1280.3 1941.49,1282.7 1940.83,1288.35C1940.14,1294.29 1945.23,1298.25 1946.72,1299.39C1957.85,1307.96 1987.91,1317.17 2001.99,1321.74C2005.54,1322.89 2008.79,1324.15 2015.84,1325.67C2029.41,1328.59 2041.89,1329.19 2054.75,1333.85C2057.76,1338.39 2059.59,1341.74 2062.4,1344.8C2065.39,1348.04 2068.28,1349.5 2070.83,1350.29C2077.09,1352.25 2083.24,1347.83 2087.87,1347.8C2090.23,1348.96 2094.92,1351.46 2100.59,1356.61C2107.13,1362.55 2111.95,1369.24 2115.78,1374.18C2119.12,1378.5 2120.66,1379.96 2122.28,1380.91C2123.51,1382.11 2132.68,1391.17 2140.01,1401.29C2147.69,1411.91 2148.64,1417.18 2148.47,1419.49C2146.71,1419.7 2143.82,1420.32 2138.74,1421.82C2127.3,1425.19 2109.35,1431.7 2094.5,1437.79C2081.17,1443.25 2074.74,1446.55 2071.57,1448.44C2061.16,1436.83 2044.08,1417.72 2035.26,1411.17C2023.31,1402.28 2001.47,1399.62 1989.46,1395.82C1988.82,1395.62 1987.89,1394.43 1987.07,1392.44C1983.89,1384.73 1983.62,1371.63 1979.12,1363.62C1978.91,1363.25 1976.6,1358.8 1972.02,1356.95C1964.04,1353.73 1954.41,1362.06 1951.24,1372.23C1950.6,1374.28 1950.26,1376.36 1950.08,1378.23C1944.36,1376.76 1938.7,1375.65 1931.01,1374.16C1928.12,1373.6 1919.06,1371.9 1916.68,1370.6C1915.03,1368.82 1913.65,1366.5 1911.53,1361.35C1907.85,1352.43 1903.95,1339.84 1891.53,1334.87C1885.15,1332.32 1875.19,1330.16 1870.16,1328.75C1870.65,1327.7 1871.83,1325.85 1874.7,1322.94C1876.94,1320.66 1878.06,1318.61 1879.77,1315.86C1882.1,1312.13 1882.6,1312.24 1884.04,1311.05C1889.28,1306.71 1888.78,1301.06 1886.41,1297.73C1883.54,1293.7 1878.74,1293.59 1877.83,1293.55C1869.09,1293.18 1847.44,1299.07 1846.94,1299.2C1836.24,1302.09 1834.38,1303.36 1833.1,1304.35C1826.12,1309.74 1825.55,1319.67 1824.45,1326.97C1824.39,1327.36 1823.92,1330.49 1823.39,1331.92C1822.36,1332.51 1821.04,1333.12 1818.95,1333.59C1813.58,1334.81 1804.69,1334.55 1797.67,1344.32C1796.93,1345.35 1793.35,1349.86 1796.21,1357.09C1799.01,1364.18 1807.87,1372.72 1814.04,1380.96C1815.1,1382.38 1815.84,1383.48 1816.34,1384.32C1812.88,1387.89 1807.86,1392.84 1805.43,1393.79L1805.16,1393.72C1796.28,1391.42 1785.9,1383.07 1777.86,1376.88C1770.19,1370.97 1760.76,1363.76 1752.31,1362.99C1743.03,1362.13 1737.03,1368.49 1734.57,1371.15C1733.29,1372.53 1731.21,1374.99 1730.06,1375.99C1728.66,1375.71 1727.14,1375.28 1725.74,1374.26C1722.05,1371.58 1717.55,1362.99 1704.18,1361.82C1701.51,1361.58 1696.75,1361.31 1692.15,1364.35C1690.42,1365.49 1689.09,1366.85 1688.08,1368.26L1687.87,1366.91C1687.21,1362.88 1686.61,1360.14 1685.02,1356.96C1679.94,1346.78 1669.78,1343.28 1662.33,1339.68C1650.57,1334 1638.28,1322.39 1631.4,1314.44C1629.11,1311.8 1626.36,1308.62 1624.68,1303.35C1621.74,1294.12 1623.96,1285.82 1620.47,1278.19C1615.69,1267.74 1603.33,1252.52 1565.14,1235C1542.95,1224.82 1519.69,1217.6 1508.85,1214.45C1507.3,1213.73 1505.1,1212.98 1502.25,1212.75C1492.83,1211.98 1480.91,1217.31 1467.85,1222.97C1459.27,1219.86 1441.71,1209.44 1432.83,1205.35C1427.58,1202.93 1424.87,1202.23 1416.07,1201.97C1415.66,1201.96 1412.58,1201.86 1410.85,1201.86C1397.9,1201.87 1383.64,1202.07 1367.86,1199.83C1355.06,1198.01 1338.44,1190.25 1329.76,1185.54C1326.34,1183.68 1326.39,1183.59 1326.09,1183.43C1325.93,1183.34 1325.76,1183.29 1325.59,1183.23C1325.28,1183.1 1325.28,1183.1 1324.96,1182.98C1307.2,1176.51 1291.4,1180.87 1283.11,1176.08C1282.54,1175.75 1278.57,1173.1 1274.89,1170.26C1261.86,1160.2 1263.82,1156.75 1242.89,1149.2C1241.76,1148.79 1241.58,1148.69 1240.82,1148.61L1204.18,1144.66C1202.32,1143.89 1199.96,1143.12 1196.95,1141.82C1187.77,1137.82 1185.52,1134.23 1184.86,1132.26C1183.31,1127.61 1185.98,1121.36 1187.59,1120.15L1187.6,1120.15C1247.47,1089.85 1297.35,1062.07 1300.95,1060.07C1388.62,1011.41 1413.68,991.322 1422.38,983.85C1433.71,974.12 1435.66,969.24 1436.77,966.34C1452.85,924.502 1474.48,840.958 1485.99,807.135C1489.08,798.065 1489.51,798.224 1492.03,791.038C1499.97,768.458 1501.66,746.139 1511.52,728.972C1513.04,726.332 1517.47,718.731 1528.5,709.915C1539.51,701.112 1552.42,694.353 1567.86,688.064C1576.78,684.43 1581.53,683.38 1584.28,682.676C1598.47,679.049 1611.03,679.568 1622.4,685.087C1632.19,689.831 1638.69,696.76 1642.15,700.693L1642.15,700.688ZM1187.54,1120.05L1187.54,1120.05L1187.51,1120.01L1187.54,1120.05Z"/>
    </g>
</svg>
